<svg id="Capa_1" data-name="Capa 1" xmlns="http://www.w3.org/2000/svg" width="124" height="124" viewBox="0 0 124 124">
  <defs>
    <style>
      .cls-1 {
        fill: #0071bc;
      }

      .cls-2 {
        font-size: 52.194px;
        font-family: Montserrat-SemiBold, Montserrat;
        font-weight: 700;
      }

      .cls-2, .cls-4 {
        fill: #fff;
      }

      .cls-3 {
        letter-spacing: -0.008em;
      }

      .cls-4 {
        font-size: 14.484px;
        font-family: Montserrat-Light, Montserrat;
        letter-spacing: -0.01em;
      }

      .cls-5 {
        letter-spacing: 0em;
      }
    </style>
  </defs>
  <title>IFC-Syntax-Highlight-Icon</title>
  <path class="cls-1" d="M86.872,9H38.351a10.981,10.981,0,0,0-9.509,5.49L4.582,56.51a10.977,10.977,0,0,0,0,10.98l24.26,42.02A10.981,10.981,0,0,0,38.351,115H86.872a10.979,10.979,0,0,0,9.508-5.49l24.261-42.02a10.982,10.982,0,0,0,0-10.98L96.38,14.49A10.979,10.979,0,0,0,86.872,9Z"/>
  <text class="cls-2" transform="translate(18.9 77.422)">I<tspan class="cls-3" x="16.649" y="0">F</tspan><tspan x="49.479" y="0">C</tspan></text>
  <text class="cls-4" transform="translate(39.661 86.995)">s<tspan class="cls-5" x="6.779" y="0">yntax</tspan></text>
</svg>
